<svg width="24" height="24" viewBox="0 0 24 24" fill="none" xmlns="http://www.w3.org/2000/svg">
<path d="M9 22C9.55228 22 10 21.5523 10 21C10 20.4477 9.55228 20 9 20C8.44772 20 8 20.4477 8 21C8 21.5523 8.44772 22 9 22Z" fill="#123B8D" fill-opacity="0.8"/>
<path d="M20 22C20.5523 22 21 21.5523 21 21C21 20.4477 20.5523 20 20 20C19.4477 20 19 20.4477 19 21C19 21.5523 19.4477 22 20 22Z" fill="#123B8D" fill-opacity="0.8"/>
<path d="M1 1H5L7.68 14.39C7.77 14.8504 8.02 15.264 8.38 15.5583C8.74 15.8526 9.19 16.0084 9.65 16H19.4C19.8604 16.0084 20.3099 15.8526 20.6699 15.5583C21.0299 15.264 21.28 14.8504 21.37 14.39L23 6H6" stroke="#123B8D" stroke-opacity="0.8" stroke-width="2" stroke-linecap="round" stroke-linejoin="round"/>
</svg>
