<svg width="64" height="64" viewBox="0 0 64 64" fill="none" xmlns="http://www.w3.org/2000/svg">
  <rect width="64" height="64" rx="18" fill="#EAF1FF"/>
  <path d="M22 30C25.3137 30 28 27.3137 28 24C28 20.6863 25.3137 18 22 18C18.6863 18 16 20.6863 16 24C16 27.3137 18.6863 30 22 30Z" fill="#123B8D"/>
  <path d="M42 30C45.3137 30 48 27.3137 48 24C48 20.6863 45.3137 18 42 18C38.6863 18 36 20.6863 36 24C36 27.3137 38.6863 30 42 30Z" fill="#D4A017"/>
  <path d="M32 35C34.7614 35 37 32.7614 37 30C37 27.2386 34.7614 25 32 25C29.2386 25 27 27.2386 27 30C27 32.7614 29.2386 35 32 35Z" fill="#0B1F4A"/>
  <path d="M10 47C10 39.8203 15.8203 34 23 34H25C27.7614 34 30 36.2386 30 39V47H10Z" fill="#123B8D"/>
  <path d="M34 47V39C34 36.2386 36.2386 34 39 34H41C48.1797 34 54 39.8203 54 47H34Z" fill="#D4A017"/>
  <path d="M22 47C22 41.4772 26.4772 37 32 37C37.5228 37 42 41.4772 42 47H22Z" fill="#0B1F4A"/>
</svg>
