<svg width="24" height="24" viewBox="0 0 24 24" fill="none" xmlns="http://www.w3.org/2000/svg">
<g clip-path="url(#clip0_4_406)">
<path d="M23.3953 0.295403C23.775 0.576653 24 1.02665 24 1.50009V4.87509V17.2501C24 19.322 21.9844 21.0001 19.5 21.0001C17.0156 21.0001 15 19.322 15 17.2501C15 15.1782 17.0156 13.5001 19.5 13.5001C20.025 13.5001 20.5312 13.5751 21 13.7157V6.89071L9 10.4907V20.2501C9 22.322 6.98438 24.0001 4.5 24.0001C2.01562 24.0001 0 22.322 0 20.2501C0 18.1782 2.01562 16.5001 4.5 16.5001C5.025 16.5001 5.53125 16.5751 6 16.7157V9.37509V6.00009C6 5.33915 6.43594 4.75321 7.06875 4.56103L22.0687 0.0610275C22.5234 -0.07491 23.0156 0.00946505 23.3953 0.295403Z" fill="white"/>
</g>
<defs>
<clipPath id="clip0_4_406">
<path d="M0 0H24V24H0V0Z" fill="white"/>
</clipPath>
</defs>
</svg>
