<svg width="21" height="24" viewBox="0 0 21 24" fill="none" xmlns="http://www.w3.org/2000/svg">
<g clip-path="url(#clip0_4_401)">
<path d="M4.5 0C2.01562 0 0 2.01562 0 4.5V19.5C0 21.9844 2.01562 24 4.5 24H18H19.5C20.3297 24 21 23.3297 21 22.5C21 21.6703 20.3297 21 19.5 21V18C20.3297 18 21 17.3297 21 16.5V1.5C21 0.670312 20.3297 0 19.5 0H18H4.5ZM4.5 18H16.5V21H4.5C3.67031 21 3 20.3297 3 19.5C3 18.6703 3.67031 18 4.5 18ZM9.75 3.75C9.75 3.3375 10.0875 3 10.5 3H12C12.4125 3 12.75 3.3375 12.75 3.75V6H15C15.4125 6 15.75 6.3375 15.75 6.75V8.25C15.75 8.6625 15.4125 9 15 9H12.75V14.25C12.75 14.6625 12.4125 15 12 15H10.5C10.0875 15 9.75 14.6625 9.75 14.25V9H7.5C7.0875 9 6.75 8.6625 6.75 8.25V6.75C6.75 6.3375 7.0875 6 7.5 6H9.75V3.75Z" fill="white"/>
</g>
<defs>
<clipPath id="clip0_4_401">
<path d="M0 0H21V24H0V0Z" fill="white"/>
</clipPath>
</defs>
</svg>
