<svg width="21" height="24" viewBox="0 0 21 24" fill="none" xmlns="http://www.w3.org/2000/svg">
<g clip-path="url(#clip0_resource)">
<path d="M10.5 0C7.4625 0 4.575 1.2375 2.4 3.375C0.8625 4.875 0 6.975 0 9.3V20.25C0 21.45 0.975 22.5 2.25 22.5H3C4.65 22.5 6 21.15 6 19.5V9C6 8.175 6.675 7.5 7.5 7.5H13.5C14.325 7.5 15 8.175 15 9V19.5C15 21.15 16.35 22.5 18 22.5H18.75C20.025 22.5 21 21.45 21 20.25V9.3C21 6.975 20.1375 4.875 18.6 3.375C16.425 1.2375 13.5375 0 10.5 0ZM7.5 19.5C7.5 20.325 6.825 21 6 21H2.25C1.8 21 1.5 20.7 1.5 20.25V9.3C1.5 7.35 2.25 5.55 3.6 4.125C5.25 2.3625 7.7625 1.35 10.5 1.35C13.2375 1.35 15.75 2.3625 17.4 4.125C18.75 5.55 19.5 7.35 19.5 9.3V20.25C19.5 20.7 19.2 21 18.75 21H15C14.175 21 13.5 20.325 13.5 19.5V9C13.5 9 13.5 9 13.5 9H7.5V19.5ZM10.5 10.5C9.675 10.5 9 11.175 9 12V18C9 18.825 9.675 19.5 10.5 19.5C11.325 19.5 12 18.825 12 18V12C12 11.175 11.325 10.5 10.5 10.5Z" fill="white"/>
</g>
<defs>
<clipPath id="clip0_resource">
<path d="M0 0H21V24H0V0Z" fill="white"/>
</clipPath>
</defs>
</svg>
