<svg width="14" height="16" viewBox="0 0 14 16" fill="none" xmlns="http://www.w3.org/2000/svg">
<path d="M11.0637 8.32148C11.0566 7.03125 11.6402 6.05742 12.8215 5.34023C12.1605 4.39453 11.1621 3.87422 9.84375 3.77227C8.5957 3.67383 7.23164 4.5 6.73242 4.5C6.20508 4.5 4.9957 3.80742 4.04648 3.80742C2.08477 3.83906 0 5.37188 0 8.49023C0 9.41133 0.16875 10.3629 0.50625 11.3449C0.95625 12.6352 2.58047 15.7992 4.275 15.7465C5.16094 15.7254 5.78672 15.1172 6.93984 15.1172C8.05781 15.1172 8.63789 15.7465 9.62578 15.7465C11.3344 15.7219 12.8039 12.8461 13.2328 11.5523C10.9406 10.473 11.0637 8.38828 11.0637 8.32148ZM9.07383 2.54883C10.0336 1.40977 9.9457 0.372656 9.91758 0C9.07031 0.0492187 8.08945 0.576563 7.53047 1.22695C6.91523 1.92305 6.55313 2.78438 6.63047 3.75469C7.54805 3.825 8.38477 3.35391 9.07383 2.54883Z" fill="black"/>
</svg>
