<!DOCTYPE svg PUBLIC "-//W3C//DTD SVG 1.1//EN" "http://www.w3.org/Graphics/SVG/1.1/DTD/svg11.dtd">
<!-- Uploaded to: SVG Repo, www.svgrepo.com, Transformed by: SVG Repo Mixer Tools -->
<svg fill="#0B1F4A" width="800px" height="800px" viewBox="0 0 24 24" xmlns="http://www.w3.org/2000/svg">
<g id="SVGRepo_bgCarrier" stroke-width="0"/>
<g id="SVGRepo_tracerCarrier" stroke-linecap="round" stroke-linejoin="round"/>
<g id="SVGRepo_iconCarrier">
<path d="M5,22H2V18a1,1,0,0,1,1-1H4a1,1,0,0,1,1,1Zm16-5H20a1,1,0,0,0-1,1v4h3V18A1,1,0,0,0,21,17ZM4,13H6v9h4.5V18.5a1.5,1.5,0,0,1,3,0V22H18V13h2L13,8V6h2V5h0V4H13V2H11V4H9V6h2V8Z"/>
</g>
</svg>